<svg width="236" height="80" viewBox="0 0 236 80" fill="none" xmlns="http://www.w3.org/2000/svg">
<path fill-rule="evenodd" clip-rule="evenodd" d="M20.5142 54.1919C20.5142 54.4919 20.5142 54.6919 20.6142 54.9919C20.7142 54.8919 20.7142 54.6919 20.7142 54.5919C20.6142 54.4919 20.6142 54.2919 20.5142 54.1919C19.1142 42.1919 36.8142 45.6919 41.5142 45.7919C38.9142 25.5919 59.0142 32.8919 64.2142 38.8919C63.2142 12.2919 105.314 15.6919 106.514 27.5919C108.714 -3.50807 173.414 -11.4081 188.514 23.0919C192.814 18.2919 206.614 16.5919 207.414 30.6919C223.214 27.5919 225.814 34.3919 227.014 44.4919C247.614 55.9919 224.014 61.3919 221.814 59.8919C221.614 62.6919 205.514 62.6919 204.614 64.8919C202.914 68.9919 193.914 79.8919 176.114 69.0919C161.114 79.7919 147.914 85.0919 129.114 66.4919C128.214 90.8919 62.5142 73.4919 53.6142 69.4919C41.5142 76.9919 25.1142 74.6919 19.4142 66.9919C-21.6858 61.5919 17.7142 50.6919 20.5142 54.1919Z" fill="url(#paint0_linear)"/>
<defs>
<linearGradient id="paint0_linear" x1="89.8287" y1="7.41693" x2="147.202" y2="106.79" gradientUnits="userSpaceOnUse">
<stop stop-color="#11F0FE"/>
<stop offset="0.2211" stop-color="#2ADCFD"/>
<stop offset="0.5365" stop-color="#48C5FB"/>
<stop offset="0.8073" stop-color="#5AB6FA"/>
<stop offset="1" stop-color="#61B1FA"/>
</linearGradient>
</defs>
</svg>
