<svg width="721" height="721" viewBox="0 0 721 721" fill="none" xmlns="http://www.w3.org/2000/svg">
<path fill-rule="evenodd" clip-rule="evenodd" d="M360.5 0C559.6 0 721 161.4 721 360.5C721 559.6 559.6 721 360.5 721C161.4 721 0 559.6 0 360.5C0 161.4 161.4 0 360.5 0ZM543.1 106.1L498.1 122.3C494.7 123.5 491 122.7 488.5 120L469.8 100.4C466.8 97.3 462.3 96.7 458.6 98.9L413.7 126.3C409.5 128.9 408.1 134.4 410.6 138.6L413.9 144.2C416.2 148 415.4 152.8 412 155.6L375.8 186.6C373.1 188.9 372.1 192.2 372.9 195.6C373.7 199 376.3 201.4 379.7 202.2L412.2 209.5C413.5 209.8 414.7 209.8 416 209.5L466.7 199.1C469.8 198.5 472.8 199.4 475 201.7L506.9 235C509.5 237.7 510.1 241.6 508.6 245L498.9 266C497.3 269.4 494 271.5 490.2 271.2L352.6 262.7C348.7 262.5 345.3 264.6 343.8 268.1L326.5 308C325.3 310.8 325.5 313.7 327.1 316.3L353 358.7C354.6 361.4 357.3 363 360.5 363L411.9 364C415.9 364.1 419.3 366.6 420.4 370.5L429.5 402C429.6 402.3 429.6 402.6 429.7 402.9L449.2 507.2C450 511.6 453.9 514.7 458.4 514.5L475.8 513.8C479.4 513.7 482.4 511.6 483.8 508.3L531.8 393.4C532.1 392.8 532.4 392.3 532.7 391.7L558.2 355.6C559.8 353.3 560.3 350.7 559.5 348C558.7 345.3 557 343.3 554.4 342.2L540.1 336C538.7 335.4 537.4 335.2 535.8 335.3L525.9 336.1C521.6 336.4 517.7 333.8 516.5 329.6L511.8 313.2C511.2 311.2 512 309.2 513.7 308.1C515.4 307 517.6 307.2 519.1 308.6C521.8 311 525.4 311.6 528.7 310.1L551.1 300.3C553.5 299.3 555.2 297.4 556 295C556.8 292.5 556.6 290.1 555.4 287.8L554.2 285.6C553.5 284.2 552.2 283.4 550.6 283.2C547.9 283 545.5 281.6 543.9 279.2C541.9 276.2 541.9 272.6 543.7 269.5L548.4 261.8C550.6 258.2 554.9 256.6 559 258L612.2 275.9C613.8 276.5 615.1 277.3 616.2 278.6L629 293.9C630.1 295.2 631.3 296.1 632.9 296.6L638.5 298.5C641.4 299.5 643.4 301.7 644.2 304.6L656.6 349.9C657.5 353.3 660.2 355.8 663.8 356.4L666.9 356.9C669.7 357.4 672.3 356.7 674.4 354.8C676.5 353 677.6 350.5 677.5 347.7C673.7 250 625.2 163 551.6 107.4C549.1 105.5 546.1 105.1 543.1 106.1ZM186.5 96.1L248.4 83.8C251.6 83.2 254.8 84.2 256.9 86.7L267.3 98.6C269.5 101.1 270.1 104.3 269.1 107.4C268 110.5 265.6 112.7 262.3 113.3L249 116C246.5 116.5 244.1 116 242 114.5L234.7 109.3C232.3 107.6 229.5 107.1 226.7 108.1L193.4 119C189.8 120.2 187.4 123.3 187.2 127.1L186.4 142.7C186.3 145.2 187.1 147.4 188.8 149.2C190.5 151 192.6 152 195.1 152.1L232 153.4C235.2 153.5 237.8 155.1 239.4 157.8L250.6 176.8C253 180.9 251.8 186.1 247.9 188.8L152.3 253.7C150.6 254.8 148.9 255.3 146.8 255.2L111.6 253.7C108.3 253.6 105.5 255 103.7 257.7L89.1 280C86.7 283.7 87.2 288.5 90.5 291.6L99.4 299.9C101.9 302.3 105.3 303 108.6 301.8L137.2 291.5C140.7 290.2 144.5 291.2 147 294L151.6 299.3C152.4 300.2 152.8 301.4 152.7 302.6C152.6 303.9 152.1 304.9 151.1 305.7L148 308.4C144.5 311.4 143.8 316.4 146.3 320.2L157.3 337C159.1 339.8 162.1 341.2 165.4 341L208.4 338.4C210.7 338.3 212.8 338.8 214.5 340.3L264.1 383.3C265.1 384.2 266.3 384.7 267.6 385L289.3 390C294 391.1 297.1 395.8 296.1 400.5L287.6 443.5C287.4 444.6 286.9 445.5 286.4 446.5L238.4 542C238 542.7 237.7 543.3 237.5 544.1L230.6 566.3C230 568.1 230 569.7 230.6 571.5L234.4 584.3C234.7 585.2 234.8 585.9 234.8 586.9V593.2C234.8 595.1 235.3 596.8 236.4 598.4L236.5 598.5C238.5 601.3 238.7 604.8 237.1 607.8C235.5 610.9 232.5 612.7 229.1 612.7H223.8C219.9 612.7 216.6 610.3 215.3 606.7L190.2 534.6C189.8 533.5 189.7 532.6 189.7 531.4L191.4 459C191.5 455.8 190.2 452.7 187.3 451.2L124.2 418.1C121.6 416.7 120.3 414 120.1 411L119.2 391.2C119.1 390.1 118.8 388.9 119.6 388.2L138.2 371.7C140.2 370 138.7 366.7 137.3 364.5L113.5 324.7C112 322.3 109.7 320.8 106.9 320.4L77.6 316.6C75.9 316.4 74.4 315.8 73.1 314.7L54.3 299.5C51.6 297.3 50.4 293.9 51.2 290.5C69.2 210.5 117.5 142 183.3 97.5C184.3 96.8 185.3 96.4 186.5 96.1Z" fill="url(#paint0_linear)"/>
<defs>
<linearGradient id="paint0_linear" x1="180.22" y1="48.2462" x2="540.78" y2="672.754" gradientUnits="userSpaceOnUse">
<stop stop-color="#11F0FE"/>
<stop offset="1" stop-color="#130731"/>
</linearGradient>
</defs>
</svg>
