<svg width="1202" height="1202" viewBox="0 0 1202 1202" fill="none" xmlns="http://www.w3.org/2000/svg">
<path d="M1164.01 391.3C954.915 516.2 735.815 613.6 512.415 680.9C511.415 681.2 510.415 681.3 509.515 681.3C505.115 681.3 501.115 678.5 499.715 674C498.115 668.6 501.115 662.9 506.515 661.3C729.315 594.2 947.915 496.8 1156.41 371.9C1142.61 338.4 1125.81 306.5 1106.51 276.5C1006.31 335.7 903.115 389 799.815 434.9C798.515 435.5 797.115 435.8 795.715 435.8C791.815 435.8 788.115 433.5 786.415 429.7C784.115 424.6 786.415 418.5 791.615 416.3C893.915 371 996.015 318.3 1095.21 259.7C1074.41 229.6 1050.91 201.6 1025.11 175.9C826.915 289.3 619.315 378.3 407.915 440.5C406.915 440.8 406.015 440.9 405.015 440.9C400.615 440.9 396.515 438 395.215 433.6C393.615 428.2 396.715 422.5 402.115 421C610.115 359.8 814.515 272.4 1009.81 161.2C901.715 60.6 757.215 0 601.615 0C562.215 0 522.415 3.9 483.415 11.7C279.815 52.4 120.715 192 46.2146 370.5C303.315 326.3 553.815 245.7 791.015 130.7C796.115 128.2 802.215 130.4 804.615 135.4C807.115 140.5 804.915 146.6 799.915 149C557.215 266.7 300.815 348.6 37.5146 392.7C0.0145874 493.5 -10.8854 605.6 11.7146 718.6C14.6146 733 18.0146 747.3 21.9146 761.3C49.9146 758.1 78.1146 754.4 105.715 750.4C111.315 749.6 116.415 753.5 117.215 759C118.015 764.6 114.115 769.7 108.615 770.5C82.0146 774.3 54.8146 777.9 27.8146 781C53.9146 864 97.3146 938.8 153.515 1001.4C307.215 981.1 459.115 948.2 605.315 903.4C610.715 901.7 616.415 904.8 618.015 910.2C619.615 915.6 616.615 921.3 611.215 922.9C468.515 966.6 320.315 999.1 170.515 1019.6C204.615 1054.6 242.915 1085.5 284.415 1111.3C515.215 1073.5 741.315 1006.4 956.615 911.6C961.715 909.3 967.815 911.7 970.015 916.8C972.315 922 969.915 928 964.815 930.2C755.415 1022.4 535.815 1088.6 311.715 1127.3C398.015 1174.9 496.715 1201.8 600.315 1201.8C639.715 1201.8 679.515 1197.9 718.515 1190.1C1043.41 1125.2 1255.01 808.1 1190.21 483.2C1183.91 451.7 1175.11 420.9 1164.01 391.3ZM345.815 571.2C435.415 548.4 524.915 520.8 611.915 489.1C617.215 487.2 623.015 489.9 625.015 495.2C627.015 500.5 624.215 506.3 618.915 508.3C531.215 540.2 441.015 568 350.815 591C350.015 591.2 349.115 591.3 348.315 591.3C343.815 591.3 339.615 588.2 338.415 583.6C337.015 578.1 340.315 572.6 345.815 571.2ZM182.415 738.1C228.615 730 275.615 720.6 322.015 710.1C327.515 708.9 332.915 712.3 334.215 717.8C335.515 723.3 332.015 728.7 326.515 730C279.715 740.6 232.415 750.1 185.915 758.2C185.315 758.3 184.715 758.4 184.115 758.4C179.215 758.4 174.915 754.9 174.115 750C173.215 744.4 176.915 739.1 182.415 738.1ZM817.315 710.6C610.115 796.3 392.315 856.9 170.015 890.8C169.515 890.9 169.015 890.9 168.515 890.9C163.615 890.9 159.215 887.3 158.415 882.2C157.615 876.6 161.415 871.4 166.915 870.6C387.615 837 603.815 776.8 809.515 691.7C814.715 689.6 820.715 692 822.815 697.2C825.015 702.5 822.515 708.4 817.315 710.6ZM1078.81 732.5C1017.21 764.2 953.615 794.1 889.715 821.3C888.415 821.9 887.015 822.1 885.715 822.1C881.715 822.1 878.015 819.8 876.315 815.9C874.115 810.7 876.515 804.7 881.715 802.5C945.115 775.5 1008.31 745.9 1069.41 714.4C1074.41 711.8 1080.51 713.8 1083.11 718.8C1085.71 723.8 1083.81 729.9 1078.81 732.5Z" fill="url(#marss)"/>
<defs>
<linearGradient id="mars" x1="300.498" y1="80.6107" x2="901.446" y2="1121.48" gradientUnits="userSpaceOnUse">
<stop offset="2.66389e-07" stop-color="#FF931E"/>
<stop offset="0.4966" stop-color="#C1272D"/>
<stop offset="1" stop-color="#42210B"/>
</linearGradient>
</defs>
</svg>
