<svg width="349" height="382" viewBox="0 0 349 382" fill="none" xmlns="http://www.w3.org/2000/svg">
<path d="M348.314 187.197L77.2525 178.284C69.2108 178.035 62.9899 184.256 63.3683 192.155C63.6714 200.138 70.3833 206.755 78.3351 206.923C78.8302 206.913 79.3254 206.903 79.8205 206.893L348.314 187.197Z" fill="white"/>
<path d="M293.383 158.25L15.6715 121.305C10.1511 120.593 5.2842 124.398 4.946 129.841C4.60779 135.284 8.78625 140.387 14.3066 141.099C14.5616 141.176 14.8018 141.089 15.0567 141.166L293.383 158.25Z" fill="white"/>
<path d="M307.668 217.919L33.4152 246.215C27.923 246.738 24.3148 251.67 25.2218 257.17C26.1288 262.67 31.3593 266.599 36.8515 266.076C37.0917 265.989 37.3466 266.066 37.5868 265.979L307.668 217.919Z" fill="white"/>
</svg>
