<svg width="246" height="240" viewBox="0 0 246 240" xmlns="http://www.w3.org/2000/svg">
<path d="M245.235 0L73.0354 154.7C67.9354 159.3 67.5353 167.1 72.1353 172.1C76.7353 177.2 84.5354 177.6 89.5354 173C89.8354 172.7 90.1353 172.4 90.4353 172.1L245.235 0Z"/>
<path d="M195.335 13.4L3.53543 153.5C-0.264569 156.3 -1.16456 161.7 1.63544 165.5C4.43544 169.3 9.83544 170.2 13.6354 167.4C13.8354 167.3 13.9354 167.1 14.1354 167L195.335 13.4Z"/>
<path d="M237.135 44.4L83.5353 225.6C80.4353 229.2 80.9353 234.6 84.5353 237.7C88.1353 240.8 93.5353 240.3 96.6353 236.7C96.7353 236.5 96.9353 236.4 97.0353 236.2L237.135 44.4Z"/>
</svg>
