<svg width="284" height="96" viewBox="0 0 284 96" fill="none" xmlns="http://www.w3.org/2000/svg">
<path fill-rule="evenodd" clip-rule="evenodd" d="M259.314 64.8919C259.314 65.1919 259.314 65.4919 259.214 65.8919C259.114 65.6919 259.114 65.5919 259.114 65.3919C259.114 65.1919 259.214 64.9919 259.314 64.8919C261.014 50.3919 239.614 54.6919 234.014 54.7919C237.114 30.4919 212.914 39.1919 206.614 46.4919C207.814 14.3919 157.114 18.4919 155.514 32.8919C152.914 -4.60807 74.8142 -14.2081 56.6142 27.3919C51.4142 21.5919 34.8142 19.4919 33.8142 36.5919C14.7142 32.7919 11.7142 41.0919 10.1142 53.2919C-14.7858 67.1919 13.8142 73.6919 16.3142 71.7919C16.6142 75.0919 35.9142 75.1919 37.0142 77.7919C39.0142 82.6919 49.9142 95.8919 71.4142 82.7919C89.5142 95.6919 105.414 102.092 128.114 79.6919C129.214 109.092 208.414 88.1919 219.214 83.3919C233.814 92.3919 253.514 89.6919 260.514 80.3919C310.214 73.6919 262.614 60.5919 259.314 64.8919Z" fill="url(#paint0_linear)"/>
<defs>
<linearGradient id="paint0_linear" x1="97.1245" y1="-8.62598" x2="179.334" y2="133.766" gradientUnits="userSpaceOnUse">
<stop stop-color="#11F0FE"/>
<stop offset="0.357" stop-color="#33D5FC"/>
<stop offset="0.773" stop-color="#54BBFB"/>
<stop offset="1" stop-color="#61B1FA"/>
</linearGradient>
</defs>
</svg>
