<svg width="1579" height="721" viewBox="0 0 1579 721" fill="none" xmlns="http://www.w3.org/2000/svg">
<path fill-rule="evenodd" clip-rule="evenodd" d="M1578.8 721L1426.2 510.5L1326.2 442.1L1289.4 463.2L1215.7 357.9L1026.2 36.9L931.5 0L889.4 47.4L831.5 52.7L757.8 110.6L626.3 289.5L636.8 310.6L657.9 305.3L789.5 452.7H805.3L826.4 426.4L900.1 421.1L942.2 473.7L989.6 489.5L1121 721H1578.8ZM0 721L136.8 536.8L215.7 500L252.5 394.7L320.9 352.6L452.5 136.8L505.1 115.7L594.6 278.8L615.7 342L647.3 336.7L778.9 473.5H821L842.1 452.4L889.5 447.1L926.3 494.5L973.7 510.3L1089.4 721H0Z" fill="url(#paint0_linear)"/>
<defs>
<linearGradient id="paint0_linear" x1="452.26" y1="137.028" x2="986.77" y2="1062.83" gradientUnits="userSpaceOnUse">
<stop stop-color="#6500B4"/>
<stop offset="0.1326" stop-color="#56019C"/>
<stop offset="0.4103" stop-color="#39046E"/>
<stop offset="0.6576" stop-color="#24064D"/>
<stop offset="0.8625" stop-color="#180738"/>
<stop offset="1" stop-color="#130731"/>
</linearGradient>
</defs>
</svg>
