<svg width="2219" height="1068" viewBox="0 0 2219 1068" fill="none" xmlns="http://www.w3.org/2000/svg">
<path fill-rule="evenodd" clip-rule="evenodd" d="M2219 1067.56L2004.5 771.662L1864 675.562L1812.2 705.162L1708.6 557.262L1442.3 105.962L1309.2 54.1621L1250 120.762L1168.6 128.162L1065 209.562L880.2 461.062L895 490.662L924.6 483.262L1109.5 690.362H1131.7L1161.3 653.362L1264.9 645.962L1324.1 719.962L1390.7 742.162L1575.6 1067.66H2219V1067.56ZM0 1067.56L192.3 808.662L303.2 756.862L355 608.962L451.2 549.762L636.1 246.462L710.1 216.862L835.8 446.162L865.4 534.962L909.8 527.562L1094.7 719.862H1153.9L1183.5 690.262L1250.1 682.862L1301.9 749.462L1368.5 771.662L1531.2 1067.56H0Z" fill="url(#paint0_linear)"/>
<path d="M767.9 0C765 0.1 762.8 2.6 762.9 5.5C763 8.4 765.5 10.6 768.4 10.5C800.3 10.5 826.1 36.2 826.1 68.2C826.1 71.1 828.4 73.5 831.3 73.5C834.2 73.5 836.6 71.2 836.6 68.3V68.2C836.6 30.6 806 0.0999756 768.5 0.0999756C768.2 -2.44156e-05 768 0 767.9 0ZM767.9 20.9C765 21 762.8 23.5 762.9 26.4C763 29.3 765.5 31.5 768.4 31.4C789.2 31.4 805.1 47.2 805.1 68.1C805.1 71 807.4 73.4 810.3 73.4C813.2 73.4 815.6 71.1 815.6 68.2V68.1C815.6 41.8 794.7 20.9 768.4 20.9C768.2 20.9 768 20.9 767.9 20.9ZM674 44.5C657.6 60.9 650.4 83.0999 650.4 104.8C650.4 125.7 658.7 145.9 674.6 161.8C690.6 177.8 710.6 186 731.6 186C753.1 186 775.5 178.8 791.9 162.4L735.3 105.8L758.9 82.2L763.1 86.4L786.7 62.8L771 47.1L747.4 70.7L751.5 74.7999L727.9 98.4L674 44.5ZM666.7 168.5L637.2 243.3L708.1 215.2L734.2 196.4C733.3 196.4 732.4 196.5 731.6 196.5C707.9 196.5 685 187 667.2 169.1C667.1 168.9 666.9 168.7 666.7 168.5Z" fill="url(#paint1_linear)"/>
<defs>
<linearGradient id="paint0_linear" x1="635.637" y1="246.792" x2="1386.87" y2="1547.97" gradientUnits="userSpaceOnUse">
<stop stop-color="#6500B4"/>
<stop offset="0.1326" stop-color="#56019C"/>
<stop offset="0.4103" stop-color="#39046E"/>
<stop offset="0.6576" stop-color="#24064D"/>
<stop offset="0.8625" stop-color="#180738"/>
<stop offset="1" stop-color="#130731"/>
</linearGradient>
<linearGradient id="paint1_linear" x1="676.936" y1="42.8308" x2="759.375" y2="185.618" gradientUnits="userSpaceOnUse">
<stop offset="5.11468e-07" stop-color="#ED1E79"/>
<stop offset="0.4633" stop-color="#A70F97"/>
<stop offset="0.8219" stop-color="#7704AC"/>
<stop offset="1" stop-color="#6500B4"/>
</linearGradient>
</defs>
</svg>
