<svg width="202" height="363" viewBox="0 0 202 363" fill="none" xmlns="http://www.w3.org/2000/svg">
<path d="M159.114 0.991943C154.914 3.09194 150.914 5.19194 147.114 7.39194C63.6142 55.5919 52.8142 146.592 65.1142 207.792L137.514 227.192C179.314 177.892 214.914 96.3919 167.214 13.7919C164.714 9.49195 162.014 5.29194 159.114 0.991943ZM129.114 201.692L84.9142 189.892C80.7142 155.292 80.3142 76.7919 151.114 31.0919C181.114 88.5919 167.614 150.192 129.114 201.692ZM190.814 185.992C187.614 192.692 184.214 198.992 180.714 204.892C183.914 214.592 184.614 226.492 182.414 238.192C179.214 232.592 174.314 227.892 168.414 223.792C164.914 228.792 161.414 233.292 158.014 237.392C174.014 250.292 174.514 266.292 172.414 282.792C184.414 274.592 194.114 260.792 198.514 244.392C203.214 226.792 201.714 206.092 190.814 185.992ZM39.8142 189.492C32.6142 189.992 26.1142 191.692 20.5142 194.892C24.5142 183.792 31.0142 173.892 38.5142 167.092C38.5142 159.992 38.8142 152.692 39.4142 145.392C19.9142 157.392 8.31423 174.592 3.51423 192.292C-0.885771 208.692 0.614223 225.492 6.91422 238.592C13.3142 223.192 21.8142 209.592 42.1142 206.492C41.2142 200.892 40.4142 195.292 39.8142 189.492ZM118.614 152.492C116.514 151.892 114.514 150.692 113.114 149.092C111.614 147.392 110.714 145.392 110.414 143.192C110.114 140.992 110.514 138.792 111.514 136.792C112.514 134.792 114.014 133.192 116.014 132.092C117.914 130.992 120.114 130.492 122.314 130.592C124.514 130.792 126.614 131.492 128.414 132.892C130.214 134.292 131.514 136.092 132.214 138.192C132.914 140.292 133.014 142.592 132.414 144.692C132.014 146.092 131.414 147.492 130.514 148.592C129.614 149.792 128.514 150.692 127.214 151.492C125.914 152.192 124.514 152.692 123.114 152.892C121.614 152.992 120.114 152.892 118.614 152.492ZM138.914 76.7919C134.614 75.6919 130.114 75.7919 125.914 77.1919C121.714 78.5919 118.014 81.2919 115.314 84.7919C112.614 88.2919 111.014 92.5919 110.714 96.9919C110.414 101.392 111.414 105.792 113.714 109.692C115.914 113.492 119.214 116.592 123.214 118.592C127.214 120.592 131.614 121.292 136.014 120.692C140.414 120.092 144.514 118.192 147.914 115.292C151.214 112.392 153.614 108.492 154.814 104.192C156.314 98.4919 155.514 92.2919 152.514 87.1919C149.614 82.0919 144.714 78.2919 138.914 76.7919ZM131.114 105.992C129.614 105.592 128.314 104.792 127.214 103.592C126.214 102.392 125.514 100.992 125.314 99.3919C125.114 97.8919 125.414 96.2919 126.014 94.8919C126.714 93.4919 127.814 92.2919 129.114 91.5919C130.414 90.7919 132.014 90.4919 133.514 90.5919C135.014 90.6919 136.514 91.2919 137.814 92.1919C139.014 93.0919 140.014 94.3919 140.514 95.8919C141.014 97.3919 141.114 98.9919 140.614 100.392C140.114 102.392 138.714 104.092 136.914 105.192C135.314 106.292 133.114 106.592 131.114 105.992ZM55.2142 313.692L41.3142 309.992L62.8142 230.492L76.7142 234.192L55.2142 313.692ZM114.014 303.792L100.114 300.092L114.914 244.192L128.814 247.892L114.014 303.792ZM69.7142 362.492L55.8142 358.792L82.3142 260.192L96.2142 263.892L69.7142 362.492Z" fill="url(#paint0_linear)"/>
<defs>
<linearGradient id="paint0_linear" x1="42.9331" y1="67.5248" x2="177.364" y2="300.366" gradientUnits="userSpaceOnUse">
<stop stop-color="#E6E6E6"/>
<stop offset="0.1416" stop-color="#E5E2E6"/>
<stop offset="0.2964" stop-color="#E0D4E4"/>
<stop offset="0.4576" stop-color="#D9BFE2"/>
<stop offset="0.6231" stop-color="#CFA0E0"/>
<stop offset="0.792" stop-color="#C278DC"/>
<stop offset="0.9614" stop-color="#B349D8"/>
<stop offset="1" stop-color="#AF3DD7"/>
</linearGradient>
</defs>
</svg>
