<svg width="510" height="171" viewBox="0 0 510 171" fill="none" xmlns="http://www.w3.org/2000/svg">
<path fill-rule="evenodd" clip-rule="evenodd" d="M43.5142 116.392C43.6142 116.992 43.5142 117.492 43.7142 118.192C43.8142 117.892 43.9142 117.592 43.9142 117.292C43.8142 116.892 43.7142 116.592 43.5142 116.392C40.4142 90.3919 78.9143 98.0919 89.1143 98.0919C83.5143 54.3919 127.114 70.0919 138.414 83.1919C136.214 25.3919 227.514 32.7919 230.214 58.7919C234.914 -8.70807 375.514 -25.9081 408.114 48.8919C417.514 38.3919 447.314 34.7919 449.214 65.3919C483.514 58.5919 489.014 73.3919 491.814 95.3919C536.514 120.392 485.214 132.092 480.614 128.792C480.114 134.792 445.314 134.792 443.314 139.592C439.714 148.392 420.114 172.092 381.514 148.592C348.914 171.792 320.314 183.292 279.514 142.992C277.514 195.892 135.114 158.292 115.614 149.592C89.4142 165.792 53.8142 160.992 41.3142 144.192C-47.9858 132.292 37.5142 108.792 43.5142 116.392Z" fill="url(#paint0_linear)"/>
<defs>
<linearGradient id="paint0_linear" x1="193.966" y1="14.8427" x2="318.453" y2="230.461" gradientUnits="userSpaceOnUse">
<stop stop-color="#11F0FE"/>
<stop offset="0.2502" stop-color="#14EDFE"/>
<stop offset="0.4643" stop-color="#1FE5FD"/>
<stop offset="0.6652" stop-color="#31D7FC"/>
<stop offset="0.8568" stop-color="#49C4FB"/>
<stop offset="1" stop-color="#61B1FA"/>
</linearGradient>
</defs>
</svg>
