<svg xmlns="http://www.w3.org/2000/svg" viewBox="0 0 1440 483.02"><title>cloud</title><g id="Layer_2" data-name="Layer 2"><g id="Layer_1-2" data-name="Layer 1"><path class="cls-1" d="M120.69,329.42c.2,1.73.14,3.21.47,5a4.69,4.69,0,0,0-.47-5c-8.66-73.72,100.13-51.9,128.84-51.68-15.93-123.81,107.37-79.31,139.54-42.2C382.91,72,641.16,92.85,648.84,166.41,662.05-24.72,1059.67-73.31,1152,138.47c26.57-29.74,110.91-40,116.21,46.79,96.94-19.11,112.69,22.69,120.43,84.9,126.48,70.88-18.58,103.89-31.75,94.42-1.28,17-99.87,17.07-105.39,30.55-10.18,24.88-65.54,92-174.88,25.49-92.26,65.56-173.11,98.31-288.52-15.95-5.63,149.77-408.47,43.21-463.59,18.62-74.24,45.84-174.7,32.19-210.12-15.34C-138.12,374.54,103.76,307.84,120.69,329.42Z"/></g></g></svg>