<svg width="607" height="1966" viewBox="0 0 607 1966" fill="none" xmlns="http://www.w3.org/2000/svg">
<path d="M568.954 1966C450.704 1932.58 361.685 1877.64 301.896 1801.19C242.106 1724.74 212.212 1623.7 212.212 1498.06V1298.72C212.305 1136.39 141.568 1055.23 0 1055.23V910.774C141.581 910.774 212.365 829.956 212.351 668.32V459.909C213.68 337.646 243.575 238.948 302.035 163.813C360.496 88.6791 449.469 34.0747 568.954 0L607 115.171C467.492 159.936 397.738 276.448 397.738 464.709V667.006C397.738 818.589 341.988 924.086 230.487 983.498C341.908 1043.59 397.625 1150.08 397.638 1302.98V1509.3C399.605 1692.92 469.392 1806.77 607 1850.83L568.954 1966Z"/>
</svg>
