<svg width="1696" height="1696" viewBox="0 0 1696 1696" fill="none" xmlns="http://www.w3.org/2000/svg">
<path d="M1554.67 1696H141.333H0V1554.67V918.667H141.333V1554.67H1554.67V918.667H1696V1554.67V1696H1554.67Z"/>
<path d="M1602.01 777.333V46.6401H93.9869V777.333H47.3469V46.6401V-1.14441e-05H93.9869H1602.01H1648.65V46.6401V777.333H1602.01Z"/>
<path d="M350.154 957.887H494.667V923.26H298.332V954L435.072 1135.97H300.452V1171.3H488.189V1141.27L350.154 957.887Z"/>
<path d="M641.888 918.667C626.589 918.052 611.332 920.683 597.122 926.387C582.913 932.092 570.072 940.74 559.444 951.763C548.603 963.72 540.225 977.697 534.789 992.894C529.353 1008.09 526.965 1024.21 527.762 1040.33V1048.22C527.37 1070.96 532.205 1093.49 541.895 1114.06C550.566 1132.52 564.182 1148.22 581.233 1159.4C597.543 1170.09 616.618 1175.78 636.117 1175.78C650.249 1176.55 664.37 1174.08 677.397 1168.55C690.423 1163.01 702.007 1154.57 711.259 1143.86C729.162 1122.66 737.995 1092.27 737.995 1052.82V1035.15H570.633C570.318 1013.56 577.947 992.599 592.068 976.26C598.573 968.933 606.606 963.121 615.6 959.235C624.595 955.348 634.332 953.481 644.126 953.765C657.387 953.36 670.516 956.49 682.168 962.834C692.737 969.157 702.01 977.431 709.493 987.214L735.286 966.956C725.412 951.335 711.555 938.626 695.139 930.139C678.723 921.652 660.342 917.692 641.888 918.667V918.667ZM636.588 1140.8C628.509 1140.95 620.491 1139.36 613.076 1136.15C605.66 1132.94 599.019 1128.18 593.599 1122.19C580.979 1107.48 573.423 1089.11 572.046 1069.78H696.184V1073.07C696.104 1091.23 689.97 1108.85 678.753 1123.13C673.478 1129.02 666.957 1133.66 659.663 1136.72C652.37 1139.77 644.487 1141.17 636.588 1140.8V1140.8Z"/>
<path d="M997.341 1044.45C998.955 1011.97 989.76 979.875 971.195 953.175C963.212 942.146 952.654 933.236 940.44 927.221C928.226 921.207 914.726 918.27 901.117 918.666C887.243 917.947 873.4 920.592 860.768 926.374C848.136 932.157 837.088 940.907 828.566 951.88L826.446 923.26H787.579V1275.06H829.862V1143.74C838.311 1154.23 849.11 1162.59 861.386 1168.13C873.663 1173.67 887.071 1176.25 900.528 1175.66C914.198 1176.15 927.782 1173.3 940.097 1167.34C952.413 1161.39 963.088 1152.52 971.195 1141.5C989.333 1118.89 997.341 1087.56 997.341 1048.22V1044.45ZM954.941 1049.16C956.398 1072.65 950.556 1096.02 938.217 1116.06C932.86 1123.74 925.639 1129.93 917.234 1134.05C908.828 1138.17 899.513 1140.08 890.164 1139.62C877.322 1140.12 864.639 1136.64 853.846 1129.66C843.053 1122.69 834.677 1112.55 829.862 1100.63V993.455C834.812 981.504 843.271 971.335 854.121 964.29C864.972 957.246 877.703 953.658 890.635 954C899.833 953.661 908.968 955.64 917.201 959.757C925.433 963.873 932.498 969.994 937.746 977.555C949.21 993.651 954.941 1017.52 954.941 1049.16V1049.16Z"/>
<path d="M1170.48 1133.02C1163.58 1134.14 1156.61 1134.69 1149.63 1134.67C1137.66 1135.65 1125.69 1132.74 1115.51 1126.37C1105.32 1120 1097.46 1110.52 1093.1 1099.34V923.26H1050.7V1170.59H1091.92L1092.62 1142.44C1098.53 1152.78 1107.12 1161.32 1117.49 1167.17C1127.86 1173.02 1139.61 1175.95 1151.51 1175.66C1157.95 1176 1164.39 1174.91 1170.36 1172.48L1170.48 1133.02Z"/>
<path d="M1353.27 923.26C1349.92 931.613 1347.9 940.433 1347.26 949.407C1338.31 939.592 1327.39 931.78 1315.21 926.482C1303.03 921.184 1289.87 918.521 1276.59 918.667C1254.68 917.818 1233.25 925.214 1216.53 939.396C1208.94 945.852 1202.9 953.916 1198.82 963.002C1194.75 972.089 1192.75 981.969 1192.97 991.925C1192.52 1003.61 1194.97 1015.22 1200.11 1025.73C1205.25 1036.23 1212.91 1045.3 1222.41 1052.11C1246.98 1067.7 1275.81 1075.2 1304.86 1073.54H1346.08V1092.98C1346.44 1099.46 1345.45 1105.94 1343.18 1112.02C1340.91 1118.1 1337.4 1123.65 1332.89 1128.31C1327.55 1133 1321.34 1136.58 1314.6 1138.85C1307.87 1141.11 1300.76 1142.01 1293.67 1141.5C1280.04 1141.88 1266.66 1137.74 1255.63 1129.72C1251.01 1126.72 1247.19 1122.62 1244.52 1117.8C1241.85 1112.97 1240.41 1107.56 1240.32 1102.05H1197.68C1198.09 1114.95 1202.72 1127.37 1210.87 1137.38C1220.18 1149.3 1232.33 1158.69 1246.21 1164.7C1261.83 1171.56 1278.73 1175.01 1295.79 1174.83C1320.05 1176.26 1343.98 1168.62 1362.92 1153.4C1371.09 1145.96 1377.57 1136.85 1381.92 1126.69C1386.26 1116.53 1388.38 1105.56 1388.13 1094.51V980.5C1387.42 962.004 1390.38 943.55 1396.84 926.205V922.554L1353.27 923.26ZM1282.6 955.532C1295.9 955.54 1308.96 959.12 1320.41 965.896C1331.54 971.953 1340.55 981.287 1346.2 992.632V1043.51H1312.99C1261.16 1043.51 1235.13 1028.32 1235.13 997.932C1234.85 992.062 1235.9 986.203 1238.2 980.797C1240.51 975.391 1244.01 970.578 1248.44 966.72C1258.2 958.917 1270.47 954.938 1282.95 955.532H1282.6Z"/>
<path d="M373.001 296.682H284.197V770.855H373.001V296.682Z"/>
<path d="M743.414 296.682H654.963L523.994 591.127V296.682H434.954V770.855H523.994L654.61 476.411V770.855H743.414V296.682Z"/>
<path d="M925.38 473.231L888.869 421.762V296.682H799.829V770.855H888.869V561.8L919.845 621.984L999.463 770.855H1109.58L984.74 561.093L1109.58 296.682H1003.58L925.38 473.231Z"/>
<path d="M1322.76 422.705C1323.2 429.823 1322.2 436.956 1319.81 443.676C1317.42 450.396 1313.7 456.563 1308.86 461.807C1294.55 474.289 1278.12 484.102 1260.34 490.78C1240.67 498.977 1221.65 508.663 1203.45 519.753C1155.64 550.14 1131.73 591.598 1131.73 644.127C1131.19 668.495 1137.38 692.54 1149.63 713.616C1161.58 733.863 1179.12 750.224 1200.16 760.727C1223.02 772.037 1248.26 777.73 1273.77 777.333C1298.76 777.716 1323.4 771.413 1345.14 759.078C1366.3 746.807 1383.38 728.579 1394.25 706.667C1406.26 682.793 1412.28 656.358 1411.8 629.64H1323C1324 645.811 1319.11 661.798 1309.22 674.631C1304.63 679.966 1298.91 684.206 1292.47 687.038C1286.03 689.871 1279.03 691.226 1272 691.002C1265.14 691.38 1258.27 690.388 1251.8 688.082C1245.33 685.777 1239.39 682.205 1234.31 677.576C1229.75 673.111 1226.16 667.752 1223.77 661.833C1221.37 655.915 1220.23 649.565 1220.41 643.185C1220.55 636.911 1221.98 630.734 1224.61 625.039C1227.25 619.344 1231.03 614.254 1235.72 610.089C1251.61 596.814 1269.71 586.447 1289.2 579.467C1311.49 570.748 1332.65 559.358 1352.21 545.547C1371.47 531.698 1387.02 513.301 1397.46 491.992C1407.9 470.683 1412.91 447.124 1412.04 423.411C1412.04 381.953 1399.87 349.368 1375.53 325.656C1351.19 301.943 1317.78 290.165 1275.3 290.322C1246.81 289.893 1218.72 297.048 1193.91 311.051C1170.38 323.998 1151.29 343.741 1139.15 367.702C1126.55 393.329 1120.25 421.595 1120.77 450.147H1210.05C1208.43 430.189 1213.89 410.297 1225.48 393.967C1231.93 387.46 1239.74 382.467 1248.36 379.351C1256.98 376.234 1266.18 375.072 1275.3 375.947C1281.67 375.473 1288.08 376.27 1294.15 378.292C1300.21 380.314 1305.81 383.52 1310.63 387.725C1315 392.374 1318.34 397.892 1320.43 403.92C1322.52 409.948 1323.31 416.349 1322.76 422.705V422.705Z"/>
</svg>