<svg xmlns="http://www.w3.org/2000/svg" viewBox="0 0 144 144"><title>logo</title><g id="Layer_2" data-name="Layer 2"><g id="Layer_1-2" data-name="Layer 1"><polygon points="132 0 12 0 0 0 0 12 0 66 12 66 12 12 132 12 132 66 144 66 144 12 144 0 132 0"/><polygon points="136.02 78 136.02 140.04 7.98 140.04 7.98 78 4.02 78 4.02 140.04 4.02 144 7.98 144 136.02 144 139.98 144 139.98 140.04 139.98 78 136.02 78"/><path d="M29.73,62.67H42v2.94H25.33V63L36.94,47.55H25.51v-3H41.45v2.55Z"/><path d="M54.5,66a9.21,9.21,0,0,1-7-2.81,10.43,10.43,0,0,1-2.69-7.52V55a12.61,12.61,0,0,1,1.2-5.59,9.37,9.37,0,0,1,3.34-3.85,8.5,8.5,0,0,1,4.66-1.39,7.86,7.86,0,0,1,6.38,2.71c1.52,1.8,2.27,4.38,2.27,7.73v1.5H48.45a7.48,7.48,0,0,0,1.82,5,5.69,5.69,0,0,0,4.42,1.91,6.35,6.35,0,0,0,3.23-.77,8.26,8.26,0,0,0,2.32-2.07l2.19,1.72A8.83,8.83,0,0,1,54.5,66Zm-.45-18.86a4.8,4.8,0,0,0-3.65,1.58,7.67,7.67,0,0,0-1.83,4.45H59.11v-.28a6.93,6.93,0,0,0-1.48-4.25A4.52,4.52,0,0,0,54.05,47.14Z"/><path d="M84.68,55.32a12.49,12.49,0,0,1-2.22,7.75A7.09,7.09,0,0,1,76.51,66a7.32,7.32,0,0,1-6.16-2.82l-.18,2.43h-3.3V35.74h3.59V46.89a7.29,7.29,0,0,1,6-2.71,7.13,7.13,0,0,1,6,2.9C84,49,84.68,51.66,84.68,55Zm-3.6-.4a9.69,9.69,0,0,0-1.42-5.68,4.69,4.69,0,0,0-4.08-2,5.3,5.3,0,0,0-5.12,3.31v9.1A5.43,5.43,0,0,0,75.62,63a4.66,4.66,0,0,0,4-2Q81.08,58.95,81.08,54.92Z"/><path d="M99.38,47.8a10.86,10.86,0,0,0-1.77-.14,4.74,4.74,0,0,0-4.8,3V65.61h-3.6v-21h3.5L92.77,47a5.6,5.6,0,0,1,5-2.82,3.72,3.72,0,0,1,1.6.27Z"/><path d="M114.9,65.61a7.38,7.38,0,0,1-.51-2.22,8,8,0,0,1-6,2.61,7.44,7.44,0,0,1-5.1-1.76,5.69,5.69,0,0,1-2-4.46,6,6,0,0,1,2.5-5.11,11.81,11.81,0,0,1,7-1.82h3.5V51.2a4,4,0,0,0-1.12-3,4.55,4.55,0,0,0-3.33-1.12,5.25,5.25,0,0,0-3.23,1,2.86,2.86,0,0,0-1.3,2.35h-3.62a5,5,0,0,1,1.12-3,7.68,7.68,0,0,1,3-2.32,10.22,10.22,0,0,1,4.21-.86,8.32,8.32,0,0,1,5.7,1.82,6.56,6.56,0,0,1,2.14,5v9.68a11.9,11.9,0,0,0,.74,4.61v.31Zm-6-2.74a6.31,6.31,0,0,0,3.21-.88,5.25,5.25,0,0,0,2.19-2.27V55.4h-2.82c-4.4,0-6.61,1.29-6.61,3.87A3.3,3.3,0,0,0,106,61.92,4.36,4.36,0,0,0,108.93,62.87Z"/><path d="M31.67,118.81H24.13V78.55h7.54Z"/><path d="M63.12,118.81H55.61l-11.12-25v25H36.93V78.55h7.56l11.09,25v-25h7.54Z"/><path d="M78.57,103.82l-3.1,4.37v10.62H67.91V78.55h7.56V96.3l2.63-5.11,6.76-12.64h9.35L83.61,96.36l10.6,22.45h-9Z"/><path d="M112.31,108.11a4.49,4.49,0,0,0-1.18-3.32,13.48,13.48,0,0,0-4.12-2.46,35.58,35.58,0,0,1-4.83-2.46Q96.09,96,96.09,89.31a11.25,11.25,0,0,1,1.52-5.9,10.35,10.35,0,0,1,4.29-4A13.62,13.62,0,0,1,108.15,78a11.91,11.91,0,0,1,6.06,1.55A10.58,10.58,0,0,1,118.38,84a14,14,0,0,1,1.49,6.54h-7.54a5.68,5.68,0,0,0-1.17-3.82A4,4,0,0,0,108,85.33a4.39,4.39,0,0,0-3.2,1.14,3.93,3.93,0,0,0-1.18,2.92,3.87,3.87,0,0,0,1.3,2.81,14.93,14.93,0,0,0,4.54,2.6,25.15,25.15,0,0,1,5.35,2.88,12.22,12.22,0,0,1,5.08,10.37q0,5.28-3.1,8.3t-8.51,3a13.64,13.64,0,0,1-6.91-1.76,11.34,11.34,0,0,1-4.65-4.81,15.23,15.23,0,0,1-1.56-7h7.58a7.23,7.23,0,0,0,1.31,4.77,5.25,5.25,0,0,0,4.23,1.53,4.1,4.1,0,0,0,3-1A3.85,3.85,0,0,0,112.31,108.11Z"/></g></g></svg>