<svg width="1177" height="2128" viewBox="0 0 1177 2128" fill="none" xmlns="http://www.w3.org/2000/svg">
<path d="M930.446 0C905.921 12.0626 882.329 24.6022 859.67 37.6189C368.324 321.134 304.824 856.994 377.114 1216.95L803.116 1331.02C1049.13 1041.07 1258.6 561.208 977.948 75.3694C963.43 50.2572 947.596 25.1341 930.446 0ZM753.853 1181.32L493.992 1111.76C469.434 908.249 466.949 446.344 883.553 177.452C1059.7 515.446 980.285 877.752 753.853 1181.32ZM1117.18 1088.78C1098.22 1128.12 1078.33 1165.26 1057.51 1200.19C1076.21 1257.21 1080.44 1327.19 1067.8 1396.14C1048.69 1363.33 1020.41 1335.48 985.157 1311.51C964.286 1340.68 943.745 1367.23 923.763 1391.7C1017.85 1467.53 1021.09 1561.74 1008.51 1659.06C1079.29 1610.74 1136.12 1529.71 1161.96 1433.09C1189.83 1329.08 1181.2 1207.06 1117.14 1088.78H1117.18ZM228.37 1109.07C186.053 1112.17 147.719 1122.23 114.8 1140.99C138.206 1075.63 176.408 1017.62 220.47 977.615C220.19 935.752 222.379 892.984 225.967 850.118C111.377 920.487 42.8069 1021.86 14.8259 1125.98C-10.9824 1222.44 -2.32479 1321.15 34.7911 1398.33C72.6478 1307.68 122.553 1227.71 242.031 1209.17C236.391 1176.58 231.849 1143.21 228.403 1109.07H228.37ZM692.361 891.833C679.764 888.449 668.454 881.408 659.862 871.6C651.269 861.793 645.779 849.659 644.087 836.734C642.394 823.809 644.575 810.672 650.352 798.985C656.13 787.298 665.246 777.586 676.547 771.076C687.848 764.567 700.827 761.552 713.842 762.414C726.858 763.276 739.325 767.976 749.668 775.918C760.01 783.861 767.764 794.69 771.949 807.037C776.133 819.384 776.56 832.693 773.176 845.282C770.942 853.647 767.078 861.488 761.806 868.358C756.534 875.227 749.957 880.989 742.453 885.314C734.948 889.638 726.663 892.44 718.073 893.559C709.483 894.677 700.756 894.091 692.393 891.833H692.361ZM811.806 446.064C786.59 439.34 759.946 440.239 735.241 448.648C710.537 457.058 688.882 472.599 673.016 493.307C657.15 514.016 647.784 538.961 646.104 564.989C644.424 591.016 650.505 616.957 663.577 639.531C676.65 662.105 696.126 680.298 719.545 691.81C742.964 703.322 769.272 707.635 795.143 704.204C821.015 700.773 845.287 689.752 864.891 672.535C884.495 655.318 898.55 632.679 905.279 607.479C914.31 573.68 909.54 537.681 892.018 507.396C874.496 477.111 845.656 455.021 811.839 445.982L811.806 446.064ZM765.852 617.99C757.029 615.626 749.106 610.7 743.084 603.836C737.062 596.973 733.212 588.478 732.021 579.428C730.83 570.377 732.35 561.177 736.391 552.99C740.432 544.803 746.811 537.998 754.722 533.434C762.633 528.87 771.72 526.753 780.835 527.351C789.95 527.949 798.682 531.234 805.929 536.791C813.175 542.349 818.61 549.929 821.546 558.573C824.482 567.217 824.787 576.537 822.423 585.355C819.244 597.175 811.501 607.251 800.894 613.37C790.287 619.489 777.684 621.151 765.852 617.99ZM319.094 1840.15L237.439 1818.29L363.864 1350.37L445.519 1372.23L319.094 1840.15ZM664.824 1782.05L583.185 1760.04L670.058 1431.06L751.713 1452.94L664.824 1782.05ZM404.222 2127.61L322.617 2105.75L478.652 1525.56L560.307 1547.44L404.222 2127.61Z"/>
</svg>
