<svg width="1765" height="1934" viewBox="0 0 1765 1934" fill="none" xmlns="http://www.w3.org/2000/svg">
<path d="M976.609 681.839C998.948 691.071 1019.52 703.542 1040.72 714.994C1059.59 725.196 1077.05 737.388 1094.51 749.52C1109.7 760.254 1124.33 771.741 1138.34 783.936C1148.89 792.962 1159.07 802.323 1168.89 812.02C1179.08 822.053 1189.08 832.365 1198.49 843.234C1207.53 853.692 1216.68 864.076 1225.13 874.994C1238.08 891.767 1250.17 909.178 1261.35 927.159C1262.15 928.457 1263.9 929.585 1262.97 931.514C1256.84 927.547 1252.57 921.579 1248.45 915.889C1242.06 907.094 1234.04 899.985 1226.61 892.257C1215.58 880.829 1204.05 869.875 1191.28 860.558C1177.92 850.853 1165.04 840.444 1150.56 832.146C1136.08 823.848 1121.8 815.017 1107.31 806.67C1104.2 804.487 1101.08 802.327 1097.97 800.156C1097.48 799.316 1096.83 798.582 1096.06 797.996C1095.28 797.411 1094.39 796.986 1093.44 796.747C1093.45 796.694 1093.43 796.642 1093.41 796.594C1093.39 796.547 1093.35 796.506 1093.31 796.475C1093.26 796.444 1093.21 796.424 1093.16 796.416C1093.11 796.409 1093.05 796.414 1093 796.432C1088.1 792.562 1083.19 788.522 1077.53 785.78C1077.52 785.72 1077.49 785.663 1077.46 785.612C1077.43 785.562 1077.38 785.518 1077.33 785.484C1077.28 785.45 1077.22 785.427 1077.16 785.415C1077.1 785.404 1077.04 785.404 1076.98 785.416C1075.7 783.945 1074.03 782.842 1072.17 782.226L1070.39 781.474L1063.04 777.228C1063.01 777.099 1062.93 776.987 1062.82 776.916C1062.7 776.846 1062.57 776.823 1062.44 776.851C1057.74 771.841 1051.12 769.767 1045.47 766.188C1035.41 759.795 1025.11 753.608 1013.6 749.968L1013.23 749.665L1012.74 749.58C1012.15 749.006 1011.49 748.497 1010.78 748.064C997.489 741.695 984.333 735.047 970.858 729.09C956.77 722.879 942.658 716.741 927.944 712.106C895.885 700.479 863.125 690.836 829.855 683.234C829.52 683.222 829.185 683.263 828.862 683.355C824.277 681.948 819.703 680.504 814.86 680.371C814.21 680.201 813.548 680.055 812.898 679.898C808.3 678.029 803.347 677.629 798.541 676.792C787.408 674.851 776.336 672.364 764.994 671.842L764.577 671.661L764.136 671.745C760.433 670.609 756.556 670.128 752.684 670.326L748.724 669.647C748.233 669.283 747.816 669.283 747.498 669.78H747.571C740.423 668.7 733.373 666.856 726.077 666.711L725.624 666.553L725.146 666.662C722.39 665.93 719.52 665.72 716.685 666.044L714.748 665.74C709.844 665.51 704.939 664.309 700.035 665.401C687.565 664.758 675.083 663.314 662.638 663.666C639.906 664.297 617.174 664.345 594.442 666.48C579.079 667.924 563.704 669.707 548.475 671.83C533.885 673.856 519.331 676.574 504.85 679.643C482.425 684.398 460.208 689.979 438.407 696.833C419.513 702.753 400.79 709.256 382.399 716.753C373.816 720.234 365.233 724.032 356.65 727.465C348.067 730.898 339.816 735.192 331.478 739.171C316.201 746.45 301.389 754.603 286.688 762.816C279.135 767.037 271.546 771.623 264.201 776.427C255.741 781.947 247.146 787.345 238.711 792.95C226.584 800.969 215.096 809.934 203.484 818.668C188.207 830.157 173.494 842.361 159.406 855.135C142.551 870.421 126.395 886.47 110.938 903.285C100.663 914.482 91.5773 926.686 80.9346 937.471C74.2646 944.216 70.9051 953.241 63.2051 959.829C72.8178 943.585 82.5286 928.178 93.0731 913.184C105.53 895.484 118.969 878.597 132.799 862.026C145.79 846.247 159.758 831.28 174.622 817.213C184.235 808.247 193.688 799.1 203.656 790.524C213.894 781.668 224.193 772.921 234.812 764.587C257.786 746.482 281.975 729.941 307.213 715.079C320.1 707.399 333.587 700.23 346.964 693.133C363.786 684.204 381.123 676.452 398.571 669.04C407.154 665.401 416.068 661.883 424.969 658.644C437.377 654.106 450.006 650.152 462.464 645.796C474.271 641.672 486.704 639.379 498.756 635.922C512.794 631.973 527.059 628.866 541.474 626.617C554.14 624.579 566.658 621.352 579.692 620.915C589.501 620.587 599.163 618.028 609.008 617.276C637.809 614.977 666.719 614.321 695.596 615.31C737.458 616.876 779.09 622.182 819.985 631.166C825.012 632.27 829.978 634.199 835.299 633.726L923.469 659.857C929.734 663.496 936.588 665.716 943.491 667.827C943.613 667.947 943.759 668.04 943.92 668.101C944.08 668.161 944.252 668.188 944.423 668.179C954.992 673.08 965.598 677.896 976.609 681.839Z"/>
<path d="M613.301 965.166C595.361 972.452 578.319 981.736 562.503 992.837C544.094 1005.5 527.583 1020.68 513.458 1037.91C494.147 1061.45 481.972 1088.29 473.929 1117.4C467.393 1141.06 465.456 1164.97 465.199 1189.34C465.036 1209.02 466.348 1228.68 469.122 1248.17C471.002 1261.6 473.504 1274.97 476.626 1288.27C479.679 1301.2 483.345 1313.94 487.404 1326.51C494.621 1348.73 503.583 1370.35 514.206 1391.18C525.078 1412.67 537.4 1433.42 551.088 1453.27C557.132 1461.99 563.349 1470.64 569.798 1478.99C579.84 1491.84 590.385 1504.37 601.493 1516.34C615.362 1531.35 630.1 1545.55 645.633 1558.87C666.825 1576.8 689.113 1593.41 712.37 1608.61C715.59 1610.5 718.914 1612.2 722.326 1613.72C760.949 1638.27 803.127 1654.68 847.083 1666.93C868.074 1672.79 888.771 1679.34 907.788 1690.31C913.201 1693.48 918.315 1697.14 923.065 1701.22C927.393 1704.86 930.888 1709.72 929.502 1715.78C928.117 1721.85 923.077 1724.44 917.597 1726.48C903.766 1731.6 889.519 1731.98 874.953 1731.33C839.506 1729.79 805.579 1721.63 772.376 1709.87C747.327 1701.01 723.479 1689.54 699.619 1677.93C681.84 1669.26 665.472 1658.52 648.367 1648.82C630.883 1638.91 615.483 1626.12 598.55 1615.5C597.214 1614.67 596.221 1613.08 594.247 1613.44C595.044 1611.76 593.965 1611.37 592.604 1610.95C592.667 1611.47 592.857 1611.96 593.156 1612.38C593.456 1612.8 593.855 1613.15 594.32 1613.38C593.621 1616.45 596.478 1617.71 597.631 1619.85C602.535 1628.91 608.911 1637.05 615.25 1645.04C623.281 1655.19 631.263 1665.45 640.913 1674.24C643.769 1676.85 646.038 1680.08 648.797 1682.82C668 1701.85 688.795 1719.24 710.96 1734.8C736.181 1752.58 763.021 1767.78 790.743 1781.53C833.939 1802.96 879.771 1816.81 926.143 1829.48C965.881 1840.39 1006.49 1845.7 1047.22 1850.71C1059.07 1852.16 1070.93 1852.77 1082.78 1853.73C1084.08 1853.84 1085.44 1853.59 1086.97 1855.05C1081.26 1855.7 1075.94 1857.01 1070.66 1856.78C1057.88 1856.24 1045.2 1858.7 1032.48 1858C1010.41 1856.78 988.343 1858.46 966.273 1856.04C948.924 1854.14 931.243 1854.5 913.918 1851.99C877.564 1846.69 841.1 1841.97 805.273 1833.44C777.244 1826.76 749.681 1818.56 722.29 1809.76C687.873 1798.7 655.135 1783.73 622.558 1768.25C603.798 1759.32 586.228 1748.44 568.045 1738.59C550.377 1729 534.278 1717.19 517.836 1705.93C500.131 1693.8 483.504 1680.24 467.111 1666.29C456.174 1656.96 445.642 1647.22 435.233 1637.44C423.388 1626.34 412.317 1614.39 400.448 1603.34C388.052 1591.77 377.63 1578.64 367.527 1565.09C361.396 1556.84 355.437 1548.44 350.177 1539.72C342.49 1526.97 335.194 1513.95 328.622 1500.52C323.889 1490.88 319.365 1481.11 315.135 1471.27C308.931 1456.96 303.291 1442.35 298.509 1427.52C296.241 1420.49 293.837 1413.5 291.643 1406.47C289.926 1395.03 284.911 1384.43 283.06 1373.02C283.342 1370.4 281.834 1368.34 280.828 1366.1C279.472 1359.12 278.098 1352.14 276.709 1345.16C276.145 1354.74 274.097 1364.19 275.985 1373.69C276.733 1390.78 277.42 1407.85 279.259 1424.93C280.743 1438.81 284.004 1452.37 285.279 1466.18C285.807 1470.34 286.651 1474.45 287.805 1478.48C291.827 1494.6 295.284 1510.91 300.213 1526.76C305.78 1544.69 311.8 1562.49 318.985 1579.95C322.345 1588.1 326.011 1596.25 329.174 1604.54C332.326 1612.3 335.932 1619.87 339.976 1627.21C345.04 1636.92 349.282 1647.01 354.922 1656.33C359.263 1663.5 362.622 1671.22 367.49 1678.08C372.946 1685.74 376.588 1694.55 382.632 1701.84C383.863 1706.18 386.468 1710 390.063 1712.76C396.769 1725.77 406.088 1737.02 414.707 1748.75C421.181 1757.56 427.594 1766.45 434.607 1774.84C443.264 1785.17 451.993 1795.46 460.699 1805.74C470.079 1816.82 480.084 1827.34 489.954 1837.94C503.253 1852.24 517.149 1865.95 531.642 1879.09C544.405 1890.62 556.998 1902.4 570.742 1912.83C572.506 1914.34 574.046 1916.08 575.316 1918.01C578.54 1922.28 584.279 1923.53 588.325 1927.04C591.215 1929.3 594.219 1931.41 597.324 1933.37C594.431 1934.09 593.082 1932.86 591.586 1932.08C571.539 1921.68 552.62 1909.5 533.603 1897.4C516.438 1886.48 499.934 1874.75 483.652 1862.73C468.938 1851.91 454.544 1840.72 440.603 1828.89C429.163 1819.19 417.699 1809.48 406.664 1799.32C395.629 1789.15 383.858 1779.07 373.976 1767.42C372.247 1765.39 370.555 1763.17 367.845 1762.27L366.117 1760.92V1761C365.884 1760.55 365.638 1760.11 365.418 1759.66C359.226 1751.58 351.808 1744.56 345.064 1736.98C333.367 1723.86 322.124 1710.29 310.733 1696.94C310.662 1696.47 310.476 1696.02 310.192 1695.63C309.909 1695.24 309.535 1694.93 309.103 1694.71C301.746 1685.07 294.132 1675.59 287.033 1665.72C280.301 1656.29 274.158 1646.44 267.721 1636.81C248.753 1608.39 232.63 1578.42 218.248 1547.54C213.944 1538.29 210.278 1528.67 206.244 1519.29C198.753 1501.98 192.965 1484.11 187.399 1466.19C184.383 1456.49 181.477 1446.6 179.147 1436.61C175.469 1420.9 171.668 1405.16 169.338 1389.3C167.009 1373.45 164.679 1357.76 163.208 1341.84C161.123 1318.87 161.258 1295.88 160.339 1272.89C160.216 1269.78 160.67 1266.65 160.89 1262.76C150.824 1270.54 145.196 1280.39 140.88 1291.1C130.801 1316.17 128.312 1342.61 126.032 1369.19C123.948 1393.54 124.499 1417.87 125.247 1442.18C125.86 1462.14 128.08 1482.06 129.232 1502.01C129.71 1511.59 129.415 1521.18 128.349 1530.71C128.141 1532.67 128.19 1535.39 125.811 1535.68C123.433 1535.97 122.415 1533.39 121.557 1531.35C114.457 1514.36 110.938 1496.41 106.978 1478.53C100.995 1451.55 97.2428 1424.22 93.6135 1396.91C90.487 1373.31 89.408 1349.45 87.483 1325.7C87.5626 1325.6 87.616 1325.48 87.6384 1325.36C87.6608 1325.23 87.6516 1325.1 87.6114 1324.98C87.5713 1324.86 87.5016 1324.75 87.4085 1324.67C87.3155 1324.58 87.202 1324.52 87.0784 1324.48C88.7581 1314.2 87.483 1303.97 86.6002 1293.73C86.6002 1292.23 86.6002 1290.74 86.6002 1289.23C86.6002 1288.64 86.6002 1288.02 86.6002 1287.42C87.4462 1282.83 86.6738 1278.24 86.6002 1273.64C86.7105 1273 86.8454 1272.36 86.968 1271.71C87.1642 1270.22 87.483 1268.75 87.532 1267.27C88.2922 1242.65 89.6042 1218.09 96.3233 1194.17L101.338 1177.6C99.8299 1180.8 97.2919 1183.48 96.7892 1187.02C87.6533 1206.61 79.6702 1226.71 72.88 1247.21C71.4332 1248.57 71.1635 1250.46 70.624 1252.19C65.5356 1268.21 60.1407 1284.12 55.5673 1300.27C51.212 1314.92 47.8774 1329.86 45.5868 1344.96C42.2273 1358.23 41.5897 1371.94 39.3091 1385.38C37.1266 1398.26 38.083 1411.2 38.1688 1424.2C38.2301 1438.56 41.5161 1452.58 41.6387 1466.88C41.7847 1472.28 40.7865 1477.66 38.7083 1482.65C37.1144 1486.29 34.6744 1486.43 31.9034 1484.02C28.4905 1480.96 25.7812 1477.21 23.9582 1473.02C16.0743 1455.78 11.6971 1437.54 8.25173 1419.01C3.73964 1394.75 1.7656 1370.11 0.821494 1345.44C0.888775 1343.59 0.610277 1341.74 0 1339.99C1.22611 1335.14 0.269744 1330.28 0.478183 1325.43C1.15254 1309.66 1.34872 1293.89 1.70429 1278.12C1.70429 1277.77 1.81464 1277.43 1.87595 1277.09C3.44537 1270.27 4.65922 1263.43 4.14425 1256.39C5.84855 1243.53 7.57736 1230.7 9.19583 1217.84C11.366 1202.01 14.4651 1186.32 18.4775 1170.84C26.3482 1138.71 36.2668 1107.11 48.1739 1076.22C56.7567 1054.03 68.7112 1033.38 80.0528 1012.45C88.7459 996.513 99.9771 982.417 110.142 967.568C115.316 959.986 122.623 953.859 128.533 946.714C140.144 932.605 153.141 919.879 166.15 907.069C174.733 898.662 183.966 891.128 192.818 883.134C202.799 874.12 213.92 866.307 224.599 858.058C232.495 851.992 240.808 846.448 249.035 840.892C257.263 835.336 265.686 829.974 274.207 824.855C288.21 816.363 302.408 808.222 316.95 800.847C325.152 796.673 333.576 792.609 342.06 788.837C352.409 784.227 362.818 779.665 373.302 775.419C387.561 769.657 401.968 764.052 416.706 759.733C427.582 756.555 438.457 753.255 449.431 750.344C464.046 746.474 478.772 742.968 493.571 740.275C509.707 737.327 525.965 734.706 542.321 732.778C560.063 730.679 577.878 728.944 595.608 728.155C613.337 727.367 630.748 725.523 648.465 726.02C658.851 726.312 669.591 726.263 680.111 724.516C683.63 723.934 687.468 725.147 691.146 725.535C700.428 726.906 709.771 726.324 719.102 726.263C719.135 726.306 719.178 726.34 719.226 726.364C719.275 726.388 719.329 726.401 719.384 726.401C719.438 726.401 719.492 726.388 719.541 726.364C719.59 726.34 719.632 726.306 719.666 726.263C722.143 726.79 724.702 726.827 727.194 726.372L729.119 726.663C734.091 727.236 739.102 727.402 744.102 727.161L746.003 727.476C747.613 728.233 749.421 728.474 751.177 728.168L753.138 728.544C760.409 730.133 767.852 729.623 775.208 730.63C775.846 730.715 776.606 729.89 777.317 729.49C779.304 730.109 781.118 731.395 783.35 731.079C784.624 731.707 786.091 731.837 787.457 731.443V731.443C794.973 732.761 802.566 733.607 810.189 733.979L811.183 734.16L828.458 737.29C828.579 737.411 828.733 737.494 828.9 737.53C829.067 737.567 829.242 737.555 829.403 737.497C834.487 739.091 839.758 740.029 845.085 740.287C845.244 740.517 845.428 740.566 845.649 740.36C851.758 742.139 858.029 743.325 864.371 743.902L864.592 744.169L864.935 744.108L897.305 751.569L925.297 759.673L959.027 771.719L959.971 772.071C964.299 775.322 970.185 775.783 974.353 779.495C973.127 781.17 971.349 780.611 970.16 781.485C954.907 776.074 938.821 775.189 922.992 773.393C895.944 770.324 868.957 766.939 841.664 766.357C823.493 765.957 805.322 765.411 787.139 765.144C767.03 764.877 747.032 766.357 727.059 767.57C709.648 768.626 692.262 770.615 674.913 772.969C658.887 775.152 643.034 778.04 627.217 781.194C613.472 783.923 599.813 787.259 586.228 790.996C573.795 794.429 561.497 798.275 549.273 802.242C532.917 807.744 516.869 814.106 501.197 821.3C486.668 827.863 472.531 835.13 458.749 842.991C451.221 847.298 443.803 852.029 436.348 856.542C428.428 861.394 420.531 866.307 412.893 871.403C404.506 877.007 395.997 882.588 387.696 888.386C377.323 895.665 366.999 903.09 356.933 910.696C346.058 918.933 335.403 927.571 325.152 936.657C315.343 945.404 305.535 954.32 296.572 963.88C281.674 979.76 267.648 996.513 258.648 1016.64C255.338 1024.05 252.358 1031.67 253.265 1040.04C253.621 1043.3 253.584 1047 257.238 1048.71C260.892 1050.43 264.055 1048.3 266.409 1045.97C274.992 1037.42 284.556 1029.78 292.158 1020.18C294.22 1017.74 296.48 1015.46 298.914 1013.38C309.605 1003.55 319.292 992.753 329.812 982.744C338.971 974.058 348.13 965.324 357.534 956.917C370.212 945.574 383.466 934.777 397.125 924.599C422.236 905.88 448.622 889.029 477.178 875.855C492.035 868.927 507.356 863.021 523.034 858.179C538.452 853.518 554.164 849.871 570.068 847.261C582.746 845.15 595.289 841.948 608.261 841.511C613.668 841.317 619.027 840.092 624.421 839.352C641.096 837.207 657.879 835.992 674.692 835.712C707.883 834.899 741 836.731 773.406 844.883C775.221 845.332 776.986 845.927 779.414 846.642C777.06 848.559 774.583 848.365 772.511 848.304C762.187 847.977 752.317 851.204 742.153 851.762C729.217 852.465 716.735 855.887 703.959 857.561C690.705 859.271 677.684 862.716 664.613 865.652C650.378 868.843 636.02 871.718 622.055 875.831C610.37 879.264 598.575 882.381 587.062 886.482C576.211 890.352 565.262 893.979 554.545 898.152C543.339 902.52 532.365 907.36 521.44 912.334C513.434 915.973 505.722 920.219 497.997 924.247C488.617 929.245 479.57 934.833 470.912 940.976C461.005 947.879 451.846 955.534 442.442 963.019C435.931 968.174 430.598 974.495 424.369 979.93C414.56 988.482 405.978 998.345 397.726 1008.29C375.055 1035.77 355.413 1065.19 343.716 1099.12C340.571 1107.68 338.869 1116.7 338.676 1125.81C338.676 1129.86 338.676 1134.94 342.698 1136.55C346.72 1138.15 349.993 1134.12 352.421 1131.37C360.145 1122.45 367.76 1113.37 374.871 1103.95C386.58 1088.46 399.185 1073.62 412.035 1059.15C422.416 1047.42 433.324 1036.12 444.759 1025.24C470.385 1000.86 498.218 979.626 530.587 964.729C544.402 958.293 558.579 952.647 573.047 947.818C595.424 940.418 618.156 934.085 641.587 930.519C661.671 927.474 681.803 925.994 702.046 927.462C712.53 928.226 722.682 931.186 732.699 934.631C720.585 935.953 708.753 938.271 696.872 940.309C681.799 942.825 666.929 946.413 652.377 951.045C639.159 955.218 625.942 959.367 613.301 965.166Z"/>
<path d="M837.519 142.066C837.519 142.066 812.212 153.7 814.027 161.476C815.842 169.252 837.237 149.89 853.544 151.128C869.606 152.341 831.781 174.638 831.781 174.638C831.781 174.638 825.81 178.278 831.045 183.13C836.048 188.08 858.02 171.229 865.474 164.387C872.929 157.545 866.774 180 865.695 183.252C864.371 186.503 869.508 207.09 893.896 165.346C893.896 165.346 896.569 160.214 913.513 148.786C913.513 148.786 971.717 152.268 988.821 147.731C988.821 147.731 1019.65 163.114 1053.92 166.923C1088.41 170.562 1084.51 172.891 1117.27 171.436C1117.27 171.436 1144.76 213.131 1169.55 229.12C1169.55 229.12 1210.51 290.056 1246.5 297.505C1246.5 297.505 1260.44 307.076 1281.41 328.44C1281.41 328.44 1296.28 337.987 1264.7 358.962C1233.3 379.962 1175.93 433.34 1150.5 487.482C1150.5 487.482 1137.01 507.353 1137.27 508.032C1137.27 508.032 1118.35 533.775 1171.6 575.798C1224.85 617.821 1236.86 641.453 1236.86 641.453C1236.86 641.453 1080.56 511.648 993.677 485.141C906.782 458.852 1024.49 647.761 1262.84 835.737C1501.2 1023.71 1666.23 1038.73 1763 1032.8C1763 1032.8 1517.05 819.287 1452.9 780.466L1456.28 766.127C1456.28 766.127 1463.46 745.504 1434.84 734.586C1406.23 723.667 1428.54 596.009 1343.78 531.713C1343.78 531.713 1329.93 516.16 1362.61 512.412L1370.69 519.363C1370.69 519.363 1393.05 520.916 1441.28 466.191C1441.28 466.191 1456.46 478.723 1446.88 545.664C1437.07 612.386 1413.78 572.195 1435.08 607.133C1435.08 607.133 1439.5 617.384 1437.99 632.136C1436.77 646.888 1454.55 634.053 1448.82 607.958C1448.82 607.958 1460.4 615.977 1452.11 648.598C1443.82 681.22 1464.74 661.652 1467.86 646.403C1467.86 646.403 1466.87 653.548 1476.45 646.657C1476.45 646.657 1485.75 646.9 1488.85 640.155C1488.85 640.155 1492.8 640.301 1494.55 635.654C1494.55 635.654 1503.74 640.737 1501.31 616.632C1498.65 592.539 1498.17 581.973 1489.63 574.573C1481.04 566.954 1494.86 452.301 1494.86 452.301C1494.86 452.301 1505.98 391.304 1487.31 378.397C1487.31 378.397 1507.98 348.008 1470.02 306.106C1432.28 264.18 1394.12 213.762 1394.12 213.762C1394.12 213.762 1359.24 164.424 1317.11 152.972C1274.76 141.762 1273.49 136.74 1273.49 136.74L1273.24 126.392C1273.24 126.392 1278.73 122.583 1281.04 111.944C1283.35 101.304 1286.36 101.244 1282.92 83.3742C1279.24 65.5168 1285.83 49.2608 1285.83 49.2608C1285.83 49.2608 1286.02 7.84431 1241.69 1.74224C1197.14 -4.59033 1178.95 22.9842 1178.95 22.9842C1178.95 22.9842 1169.89 33.0775 1168.03 62.7994C1168.03 62.7994 1152.85 79.2616 1168.92 100.504C1168.92 100.504 1175.52 113.933 1166.33 118.507C1157.13 122.862 1148.08 113.872 1148.08 113.872C1148.08 113.872 1119.65 100.965 1074.97 119.247C1071.46 119.395 1067.96 118.719 1064.76 117.275C1061.57 115.831 1058.76 113.659 1056.58 110.937C1049.38 101.668 999.697 104.653 999.697 104.653C999.697 104.653 967.07 81.9427 906.243 115.11C906.243 115.11 887.091 111.47 870.06 129.061C870.06 129.061 859.932 133.428 854.869 125.494C849.805 117.56 815.56 125.033 803.838 140.707C792.116 156.381 814.051 143.303 837.519 142.066ZM1291.61 564.504C1369 661.179 1387.25 733.215 1387.25 733.215C1350.11 706.526 1283.81 665.91 1283.81 665.91C1294.96 635.97 1289.84 606.648 1278.28 609.22C1266.72 612.01 1261.46 595.803 1261.46 595.803C1258.53 551.014 1233.82 528.571 1233.82 528.571C1247.1 519.751 1272.26 482.823 1272.26 482.823C1251.26 530.245 1291.6 564.504 1291.6 564.504H1291.61Z" stroke-miterlimit="10"/>
</svg>
