<svg width="2037" height="1933" viewBox="0 0 2037 1933" fill="none" xmlns="http://www.w3.org/2000/svg">
<path d="M2025.56 1105.7L1701.07 869.311C1695.84 866.699 1690.61 864.06 1685.35 864.06H1224.7V698.605H1504.7C1511.63 698.59 1518.28 695.819 1523.18 690.898C1528.09 685.978 1530.85 679.308 1530.86 672.349V199.601C1530.85 192.643 1528.09 185.973 1523.18 181.052C1518.28 176.132 1511.63 173.361 1504.7 173.346H1224.7V26.2559C1224.68 19.3068 1221.93 12.6458 1217.04 7.7267C1212.15 2.80763 1205.51 0.0299693 1198.59 0L965.706 0C958.767 0.007496 952.114 2.77524 947.204 7.69673C942.295 12.6182 939.53 19.2921 939.515 26.2559V173.346H353.316C348.084 173.346 342.851 175.957 337.619 178.597L10.4943 414.956C7.09585 417.264 4.34744 420.412 2.51438 424.096C0.681321 427.78 -0.174495 431.877 0.0295313 435.989C0.0295313 443.852 5.26194 451.743 10.4943 456.994L337.619 693.354C342.851 695.994 348.084 698.605 353.316 698.605H942.146V864.06H533.905C526.963 864.075 520.31 866.849 515.402 871.775C510.494 876.701 507.729 883.377 507.714 890.344V1363.09C507.729 1370.06 510.494 1376.73 515.404 1381.65C520.313 1386.57 526.966 1389.34 533.905 1389.35H942.146V1906.74C942.161 1913.7 944.922 1920.37 949.825 1925.29C954.728 1930.21 961.374 1932.99 968.308 1933H1201.22C1208.15 1932.99 1214.8 1930.21 1219.7 1925.29C1224.61 1920.37 1227.37 1913.7 1227.38 1906.74V1386.71H1685.35C1690.61 1386.71 1695.84 1384.1 1701.07 1381.46L2025.56 1145.1C2028.97 1142.8 2031.72 1139.66 2033.55 1135.98C2035.38 1132.29 2036.24 1128.2 2036.03 1124.09C2036.03 1116.2 2030.77 1110.95 2025.56 1105.7ZM991.868 55.1515H1175.06V175.985H991.868V55.1515ZM1175.06 698.605V864.06H991.868V698.605H1175.06ZM1175.06 1877.85H991.868V1386.79H1175.06V1877.85Z"/>
</svg>
